<?xml version="1.0" encoding="UTF-8"?>
<svg version="1.1"
  xmlns="http://www.w3.org/2000/svg" width="1024" height="1024">
  <path d="M0 0 C1.14395485 -0.00611329 1.14395485 -0.00611329 2.3110199 -0.01235008 C6.37140617 -0.03311834 10.43175988 -0.04744289 14.4921875 -0.05688477 C17.76712394 -0.06561601 21.04161806 -0.08619038 24.31640625 -0.1184082 C97.57453793 -0.8225456 170.73727946 16.28244478 235.86669922 50.15039062 C238.19662736 51.35621638 240.53758178 52.53911967 242.87890625 53.72265625 C273.07804612 69.11325457 301.04218701 88.44655805 326.96875 110.23828125 C327.484375 110.66898926 328 111.09969727 328.53125 111.54345703 C344.60463152 124.99638455 360.67502938 139.27452061 374.27734375 155.26953125 C376.20742842 157.51609632 378.21293139 159.68412029 380.21875 161.86328125 C385.24225115 167.43741912 389.83109077 173.30400325 394.41503906 179.23876953 C396.07340796 181.37296834 397.75001398 183.4919093 399.4296875 185.609375 C406.75580859 194.87429387 413.65205699 204.25795277 419.96875 214.23828125 C420.4726123 215.03105469 420.97647461 215.82382813 421.49560547 216.640625 C470.74015544 294.39050624 497.56384319 382.09799347 498.22949219 489.83618164 C498.21808826 493.55864839 498.22490273 497.28082925 498.23636913 501.00328636 C498.30094114 525.74214603 497.53308543 550.44479549 494.15625 574.98828125 C493.89859863 576.90253906 493.89859863 576.90253906 493.63574219 578.85546875 C486.28608849 631.76245708 469.75749803 681.527405 445.96875 729.23828125 C445.50855469 730.1627002 445.04835938 731.08711914 444.57421875 732.03955078 C429.02589094 763.04098969 409.25959908 791.71064407 386.96875 818.23828125 C386.54335938 818.74858887 386.11796875 819.25889648 385.6796875 819.78466797 C372.57773975 835.4742504 358.63644699 851.11547823 343.07421875 864.41015625 C340.61147972 866.54848995 338.23387657 868.76912724 335.84375 870.98828125 C330.09747087 876.22220353 324.06041465 880.99265678 317.90380859 885.73144531 C315.91304935 887.28165551 313.9493104 888.86160599 311.98828125 890.44921875 C286.79862241 910.69185146 258.72150883 926.6686102 229.96875 941.23828125 C229.13746582 941.66463867 228.30618164 942.09099609 227.44970703 942.53027344 C201.29625295 955.86879946 173.25100278 965.55351139 144.96875 973.23828125 C143.81197754 973.55490723 142.65520508 973.8715332 141.46337891 974.19775391 C126.59786813 978.19767707 111.65907159 981.13727924 96.46875 983.55078125 C95.69821289 983.67415863 94.92767578 983.79753601 94.13378906 983.9246521 C88.75531351 984.77597076 83.36879678 985.53727741 77.96875 986.23828125 C77.2168338 986.3385965 76.4649176 986.43891174 75.69021606 986.54226685 C59.23701843 988.65937815 42.71867091 988.58008396 26.16088867 988.55395508 C23.00351668 988.54933679 19.84653113 988.55621153 16.68920898 988.57446289 C-3.43715308 988.68961743 -23.05291401 987.98868761 -43.03125 985.23828125 C-44.22459457 985.07771744 -44.22459457 985.07771744 -45.44204712 984.91390991 C-49.6954636 984.33246945 -53.92690101 983.66088757 -58.15625 982.92578125 C-59.3944751 982.7134082 -60.6327002 982.50103516 -61.90844727 982.28222656 C-144.04337103 967.82270245 -221.17482566 931.89605364 -285.03125 878.23828125 C-285.54155762 877.81289063 -286.05186523 877.3875 -286.57763672 876.94921875 C-302.26721915 863.847271 -317.90844698 849.90597824 -331.203125 834.34375 C-333.3414587 831.88101097 -335.56209599 829.50340782 -337.78125 827.11328125 C-343.01517228 821.36700212 -347.78562553 815.3299459 -352.52441406 809.17333984 C-354.07462426 807.1825806 -355.65457474 805.21884165 -357.2421875 803.2578125 C-377.48036979 778.07369171 -393.48251414 749.99589929 -408.03125 721.23828125 C-408.4629248 720.39104492 -408.89459961 719.54380859 -409.33935547 718.67089844 C-436.02015449 665.93438745 -451.17344205 606.11851177 -455.03125 547.23828125 C-455.11737549 546.11373535 -455.20350098 544.98918945 -455.29223633 543.83056641 C-456.34330943 528.97515871 -456.21859391 514.07804434 -456.21655273 499.19384766 C-456.21647201 496.07822802 -456.22334127 492.96275711 -456.23706055 489.84716797 C-456.3483381 464.14469577 -455.77522716 438.50578852 -452.34375 412.98828125 C-452.09274536 411.10387329 -452.09274536 411.10387329 -451.83666992 409.18139648 C-444.75871816 357.86833043 -429.01747489 307.26158601 -405.10302734 261.30810547 C-403.90355902 258.9916835 -402.72758445 256.66395147 -401.55078125 254.3359375 C-386.15909036 224.13390671 -366.8249716 196.16722182 -345.03125 170.23828125 C-344.60054199 169.72265625 -344.16983398 169.20703125 -343.72607422 168.67578125 C-330.2731467 152.60239973 -315.99501064 136.53200187 -300 122.9296875 C-297.75343493 120.99960283 -295.58541096 118.99409986 -293.40625 116.98828125 C-287.83211213 111.9647801 -281.965528 107.37594048 -276.03076172 102.79199219 C-273.89656291 101.13362329 -271.77762195 99.45701727 -269.66015625 97.77734375 C-260.39523738 90.45122266 -251.01157848 83.55497426 -241.03125 77.23828125 C-240.23847656 76.73441895 -239.44570312 76.23055664 -238.62890625 75.71142578 C-173.9893204 34.77056176 -103.13837896 9.59524625 -27.03125 1.23828125 C-26.27481201 1.15207016 -25.51837402 1.06585907 -24.73901367 0.97703552 C-16.50088446 0.12181334 -8.27351889 0.03811754 0 0 Z " fill="#E7E9F4" transform="translate(491.03125,17.76171875)"/>
  <path d="M0 0 C97.02 0 194.04 0 294 0 C305.49555447 21.84155349 305.49555447 21.84155349 309.125 29.5625 C309.56980713 30.49916504 310.01461426 31.43583008 310.47290039 32.40087891 C312.87247981 37.46273879 315.25145717 42.53420652 317.6264801 47.60762024 C319.22893799 51.03065017 320.83297415 54.45293901 322.4375 57.875 C322.76837616 58.5811142 323.09925232 59.28722839 323.44015503 60.01473999 C329.65133694 73.2580396 336.05450297 86.40353723 342.4927063 99.53765869 C347.56636102 109.8929175 352.57244317 120.26567967 357.375 130.75 C364.45656566 146.20186564 371.99378511 161.42998229 379.47903442 176.68899536 C379.94228119 177.6333847 380.40552795 178.57777405 380.8828125 179.55078125 C381.33840546 180.47946014 381.79399841 181.40813904 382.26339722 182.36495972 C386.37804304 190.75837556 390.4228712 199.18330265 394.4375 207.625 C397.5956364 214.26414936 400.79998446 220.88097434 404 227.5 C408.6774301 237.17755026 413.33729921 246.86322011 417.96801758 256.56323242 C420.23307356 261.30743363 422.50312657 266.04909257 424.78515625 270.78515625 C429.09793443 279.73941704 433.39984883 288.69771966 437.61328125 297.69921875 C437.92656372 298.36836304 438.23984619 299.03750732 438.56262207 299.72692871 C438.88114136 300.40727173 439.19966064 301.08761475 439.52783203 301.78857422 C446.3305123 316.31747323 453.26316679 330.77654322 460.3125 345.1875 C460.9570665 346.50541031 460.9570665 346.50541031 461.61465454 347.84994507 C463.28761174 351.27028793 464.9607142 354.6905597 466.63401794 358.11073303 C469.84059029 364.66745311 473.03040734 371.23177278 476.1875 377.8125 C476.55979736 378.58424561 476.93209473 379.35599121 477.31567383 380.15112305 C481.71690337 389.35812483 485.81002391 398.68894201 490 408 C425.32 408 360.64 408 294 408 C269.65740741 358.20833333 269.65740741 358.20833333 257.9375 334 C254.52623539 326.9557126 251.10697529 319.91530439 247.6875 312.875 C247.33820435 312.15578369 246.98890869 311.43656738 246.62902832 310.69555664 C240.50541816 298.08783403 234.36666955 285.48751085 228.22543335 272.8883667 C222.47883567 261.0981161 216.74744567 249.30061956 211.02947998 237.49645996 C205.15336967 225.3669184 199.25374069 213.24892235 193.34811401 201.13372803 C189.13345191 192.48734878 184.92006809 183.84037277 180.71875 175.1875 C180.37334671 174.47643097 180.02794342 173.76536194 179.67207336 173.03274536 C177.95261313 169.49209508 176.23590994 165.95015124 174.52416992 162.40576172 C171.02759413 155.17465986 167.49261255 147.96584398 163.88517761 140.78927612 C161.99891439 137.03303368 160.12588459 133.27026031 158.25363159 129.50701904 C157.34178129 127.68347991 156.42351799 125.8631321 155.49856567 124.04620361 C154.20931191 121.51255705 152.94249295 118.96878267 151.6796875 116.421875 C151.29106033 115.67237579 150.90243317 114.92287659 150.50202942 114.15066528 C148.14965497 109.33618703 147.47037734 106.33729177 149 101 C150.46818238 97.47302211 152.16445302 94.08818138 153.91015625 90.69140625 C154.39705429 89.72468491 154.88395233 88.75796356 155.38560486 87.76194763 C156.93520518 84.69062224 158.49860234 81.62656582 160.0625 78.5625 C161.11875833 76.47507454 162.17410715 74.3871886 163.22851562 72.29882812 C165.80850673 67.19382522 168.40089029 62.09529379 171 57 C165.72 56.67 160.44 56.34 155 56 C154.34 57.98 153.68 59.96 153 62 C152.03727688 64.13705436 151.03662662 66.25724738 150.0078125 68.36328125 C149.71046204 68.97461411 149.41311157 69.58594696 149.10675049 70.21580505 C148.11635297 72.24977378 147.12068002 74.28111263 146.125 76.3125 C145.41063688 77.77685574 144.69661563 79.2413783 143.98291016 80.70605469 C142.45356326 83.84297305 140.9219709 86.97878108 139.38867188 90.11376953 C137.00964242 94.97851737 134.63708127 99.84640066 132.265625 104.71484375 C123.06348142 123.60194001 113.83599251 142.47665287 104.60614014 161.35021973 C97.6526139 175.56909225 90.70852169 189.79253177 83.77151489 204.01947021 C77.16937629 217.55915236 70.55576623 231.0931946 63.9375 244.625 C57.11342416 258.57771294 50.29899905 272.53505017 43.5 286.5 C35.7811606 302.35427562 28.04072763 318.19791924 20.29248047 334.0378418 C15.66938957 343.48972665 11.05038703 352.94356921 6.44140625 362.40234375 C5.76595512 363.78827728 5.76595512 363.78827728 5.07685852 365.20220947 C2.94872235 369.56903623 0.82139568 373.93625373 -1.30444336 378.30419922 C-2.07532567 379.88640902 -2.8462388 381.4686038 -3.6171875 383.05078125 C-3.94347641 383.72205551 -4.26976532 384.39332977 -4.60594177 385.08494568 C-8.34487284 392.7537147 -12.18382562 400.36765123 -16 408 C-80.35 408 -144.7 408 -211 408 C-209.40497451 403.21492352 -207.60175279 398.99742696 -205.2890625 394.56640625 C-204.92499298 393.86055893 -204.56092346 393.15471161 -204.18582153 392.42747498 C-203.0030438 390.13696949 -201.81412749 387.84971445 -200.625 385.5625 C-199.80076716 383.96957672 -198.97687638 382.37647641 -198.15332031 380.78320312 C-195.77499697 376.18561517 -193.38884144 371.59213001 -191 367 C-190.40735352 365.86030762 -189.81470703 364.72061523 -189.20410156 363.54638672 C-186.78473346 358.89786187 -184.35935446 354.25252398 -181.9296875 349.609375 C-178.55983782 343.16572283 -175.21839096 336.70740818 -171.875 330.25 C-168.00534566 322.77759999 -164.12211055 315.31339975 -160.1875 307.875 C-155.60155788 299.20015267 -151.11316367 290.47567945 -146.625 281.75 C-139.79687728 268.47524723 -132.92092254 255.22665197 -126 242 C-119.47185987 229.51448608 -112.96797227 217.01678097 -106.5 204.5 C-100.03202265 191.9832092 -93.52600193 179.48663787 -87 167 C-80.04832251 153.69403657 -73.11758102 140.37750419 -66.21142578 127.04785156 C-62.00184091 118.92531097 -57.77474541 110.81207944 -53.5390625 102.703125 C-49.07801605 94.15868682 -44.64270595 85.60099518 -40.20874023 77.04248047 C-36.02728017 68.97400505 -31.82732945 60.91537684 -27.61816406 52.86132812 C-24.7996134 47.46330863 -21.99345912 42.05906867 -19.19921875 36.6484375 C-18.87168106 36.01434967 -18.54414337 35.38026184 -18.2066803 34.72695923 C-16.611649 31.63855556 -15.01791469 28.54949791 -13.42602539 25.45947266 C-9.02425718 16.93040722 -4.51782402 8.47092004 0 0 Z " fill="#61C288" transform="translate(373,292)"/>
  <path d="M0 0 C0.33 0 0.66 0 1 0 C1.31547792 3.20804766 1.62731069 6.41643671 1.9375 9.625 C2.0310376 10.59123291 2.1245752 11.55746582 2.22094727 12.55297852 C2.70958316 17.67916666 3.13618254 22.79627082 3.4375 27.9375 C4.71563961 46.10838477 8.21037701 63.77987975 12.22363281 81.52001953 C12.95731822 84.8086836 13.65225286 88.10297774 14.3359375 91.40234375 C28.40834475 157.84848989 60.94803617 222.04118676 103 275 C103.50144531 275.63292969 104.00289063 276.26585937 104.51953125 276.91796875 C110.87765892 284.91590551 117.37521183 292.70398754 124.3671875 300.15625 C126.36235353 302.31126612 128.28708741 304.48844297 130.19921875 306.71484375 C134.55799687 311.71739805 139.23701337 316.38317085 143.9375 321.0625 C144.79279297 321.92166016 145.64808594 322.78082031 146.52929688 323.66601562 C151.52422963 328.65332835 156.62923756 333.42179675 162 338 C163.12970969 338.98475614 164.25864501 339.97040149 165.38671875 340.95703125 C187.53953832 360.17669024 211.63723446 377.27823181 237 392 C237.64582031 392.37511719 238.29164063 392.75023437 238.95703125 393.13671875 C248.07274807 398.40477601 257.32421372 403.32531602 266.79394531 407.92578125 C268.32429222 408.6709701 269.852124 409.4213377 271.37792969 410.17578125 C314.13347812 431.3103403 360.40596759 444.98013042 407.5 452.1875 C408.49386719 452.3424292 409.48773438 452.4973584 410.51171875 452.65698242 C431.44808233 455.70356828 452.40683625 456.37604714 473.53878403 456.31785583 C475.59418674 456.31241614 477.64957794 456.3100487 479.70498657 456.3079834 C499.30002887 456.27729506 518.5730487 455.7782438 538 453 C540.28107583 452.70567822 542.56232935 452.41273062 544.84375 452.12109375 C603.2955525 444.35052551 661.00957661 424.65262243 712 395 C712.88284668 394.48663086 713.76569336 393.97326172 714.67529297 393.44433594 C724.65559571 387.60547018 734.49971251 381.59776063 744 375 C744.63470215 374.56220215 745.2694043 374.1244043 745.92333984 373.67333984 C764.30916017 360.97048759 781.49413817 347.06385206 798 332 C798.89847656 331.19433594 799.79695312 330.38867188 800.72265625 329.55859375 C806.73855755 324.12566 812.56951597 318.5335541 818.3125 312.8125 C818.97008301 312.15950928 819.62766602 311.50651855 820.30517578 310.83374023 C824.73915507 306.38576126 828.90718922 301.76182206 833 297 C833.9496695 295.91722148 834.90014351 294.83514784 835.8515625 293.75390625 C843.6525597 284.81065496 850.91790286 275.51985165 858 266 C858.54301758 265.27264648 859.08603516 264.54529297 859.64550781 263.79589844 C872.84622122 246.04591957 884.32615255 227.36372131 895 208 C895.7425 206.65494385 895.7425 206.65494385 896.5 205.28271484 C909.34773213 181.81636556 919.30123621 157.28427863 927.96289062 132 C928.83834784 129.467604 929.74319056 126.95068061 930.671875 124.4375 C938.5510258 102.70787604 943.04949757 79.21571322 946.59716797 56.42944336 C946.85869027 54.85222611 947.14788791 53.27925803 947.46923828 51.71313477 C949.54099106 41.52954839 950.20722315 31.14889838 951.125 20.8125 C951.30814148 18.7909746 951.49173138 16.76948977 951.67578125 14.74804688 C952.12236291 9.83248414 952.56285844 4.91641086 953 0 C953.33 0 953.66 0 954 0 C954.99077012 82.56925746 938.84883496 160.09572381 902 234 C901.53980469 234.92441895 901.07960938 235.84883789 900.60546875 236.80126953 C885.05714094 267.80270844 865.29084908 296.47236282 843 323 C842.57460938 323.51030762 842.14921875 324.02061523 841.7109375 324.54638672 C828.60898975 340.23596915 814.66769699 355.87719698 799.10546875 369.171875 C796.64272972 371.3102087 794.26512657 373.53084599 791.875 375.75 C786.12872087 380.98392228 780.09166465 385.75437553 773.93505859 390.49316406 C771.94429935 392.04337426 769.9805604 393.62332474 768.01953125 395.2109375 C742.82987241 415.45357021 714.75275883 431.43032895 686 446 C685.16871582 446.42635742 684.33743164 446.85271484 683.48095703 447.29199219 C657.32750295 460.63051821 629.28225278 470.31523014 601 478 C599.84322754 478.31662598 598.68645508 478.63325195 597.49462891 478.95947266 C582.62911813 482.95939582 567.69032159 485.89899799 552.5 488.3125 C551.34419434 488.49756607 551.34419434 488.49756607 550.16503906 488.68637085 C544.78656351 489.53768951 539.40004678 490.29899616 534 491 C533.2480838 491.10031525 532.4961676 491.20063049 531.72146606 491.3039856 C515.26826843 493.4210969 498.74992091 493.34180271 482.19213867 493.31567383 C479.03476668 493.31105554 475.87778113 493.31793028 472.72045898 493.33618164 C452.59409692 493.45133618 432.97833599 492.75040636 413 490 C411.80665543 489.83943619 411.80665543 489.83943619 410.58920288 489.67562866 C406.3357864 489.0941882 402.10434899 488.42260632 397.875 487.6875 C396.6367749 487.47512695 395.3985498 487.26275391 394.12280273 487.04394531 C311.98787897 472.5844212 234.85642434 436.65777239 171 383 C170.48969238 382.57460938 169.97938477 382.14921875 169.45361328 381.7109375 C153.76403085 368.60898975 138.12280302 354.66769699 124.828125 339.10546875 C122.6897913 336.64272972 120.46915401 334.26512657 118.25 331.875 C113.01607772 326.12872087 108.24562447 320.09166465 103.50683594 313.93505859 C101.95662574 311.94429935 100.37667526 309.9805604 98.7890625 308.01953125 C78.55088021 282.83541046 62.54873586 254.75761804 48 226 C47.5683252 225.15276367 47.13665039 224.30552734 46.69189453 223.43261719 C20.36820737 171.40196337 5.22744832 112.41420851 1.16308594 54.33056641 C1.0119437 52.17068051 0.83961173 50.01347782 0.6640625 47.85546875 C-0.51460161 31.95204437 -0.08918512 15.9353224 0 0 Z " fill="#808080" transform="translate(35,513)"/>
  <path d="M0 0 C1.14395485 -0.00611329 1.14395485 -0.00611329 2.3110199 -0.01235008 C6.37140617 -0.03311834 10.43175988 -0.04744289 14.4921875 -0.05688477 C17.76712394 -0.06561601 21.04161806 -0.08619038 24.31640625 -0.1184082 C97.57453793 -0.8225456 170.73727946 16.28244478 235.86669922 50.15039062 C238.19662736 51.35621638 240.53758178 52.53911967 242.87890625 53.72265625 C273.07804612 69.11325457 301.04218701 88.44655805 326.96875 110.23828125 C327.484375 110.66898926 328 111.09969727 328.53125 111.54345703 C344.60463152 124.99638455 360.67502938 139.27452061 374.27734375 155.26953125 C376.20742842 157.51609632 378.21293139 159.68412029 380.21875 161.86328125 C385.24225115 167.43741912 389.83109077 173.30400325 394.41503906 179.23876953 C396.07340796 181.37296834 397.75001398 183.4919093 399.4296875 185.609375 C406.75580859 194.87429387 413.65205699 204.25795277 419.96875 214.23828125 C420.4726123 215.03105469 420.97647461 215.82382813 421.49560547 216.640625 C464.30006572 284.22255443 496.65820301 366.28123075 497.15625 447.36328125 C497.17042969 448.43835938 497.18460938 449.5134375 497.19921875 450.62109375 C496.96875 453.23828125 496.96875 453.23828125 494.96875 455.23828125 C494.93434814 454.5733667 494.89994629 453.90845215 494.86450195 453.22338867 C491.2371831 386.89125559 474.75084065 321.26169412 443.97998047 262.19140625 C442.90834394 260.12161092 441.86209722 258.04004395 440.81640625 255.95703125 C430.72740337 236.08118127 418.90313949 217.09065977 405.50244141 199.28222656 C403.95823258 197.22426473 402.43615655 195.15143108 400.91796875 193.07421875 C394.76530958 184.69832979 388.27179798 176.7279305 381.42041016 168.91650391 C380.03840328 167.3188054 378.69195893 165.6983478 377.35546875 164.0625 C370.75057651 156.03932727 363.56186341 148.64302333 356.21875 141.30078125 C355.72297455 140.80409943 355.2271991 140.3074176 354.71640015 139.79568481 C349.49957797 134.57994168 344.23085665 129.46566713 338.62744141 124.6628418 C336.54057915 122.87054841 334.54158926 120.9906113 332.53125 119.11328125 C326.0242724 113.23697994 318.9974667 108.0504457 311.99951172 102.78125 C310.22385554 101.43210994 308.4680289 100.06370775 306.72265625 98.67578125 C269.58801681 69.31575423 226.30391583 47.33486768 181.96875 31.23828125 C180.93540527 30.85961914 179.90206055 30.48095703 178.83740234 30.09082031 C149.10978412 19.31730348 118.03479504 11.70387276 86.66943359 7.70996094 C84.29512938 7.40733818 81.92273986 7.08904349 79.55322266 6.75097656 C40.46377928 1.21810628 -1.95638051 1.74647524 -41.03125 7.23828125 C-42.27213379 7.4098877 -43.51301758 7.58149414 -44.79150391 7.75830078 C-96.95047906 15.21529493 -148.21858153 30.82103633 -194.98486328 55.17822266 C-197.31402105 56.38476084 -199.65500617 57.56678366 -201.99609375 58.75 C-214.1279779 64.93277756 -225.64610942 71.77809809 -237.03125 79.23828125 C-238.08183594 79.91246094 -239.13242188 80.58664063 -240.21484375 81.28125 C-257.54135996 92.55189647 -274.58813933 105.20891537 -289.81640625 119.203125 C-291.79690997 121.02295294 -293.80751277 122.79394456 -295.84375 124.55078125 C-307.56241093 134.78098323 -319.18735486 145.38007552 -329.296875 157.22265625 C-331.29037581 159.53942746 -333.34679388 161.79248109 -335.40625 164.05078125 C-393.29386247 228.37035066 -431.38480115 310.23459009 -446.40625 395.17578125 C-446.52794556 395.86240845 -446.64964111 396.54903564 -446.77502441 397.25646973 C-447.86142315 403.45832284 -448.88960014 409.64950688 -449.53222656 415.91455078 C-449.61308502 416.6892421 -449.69394348 417.46393341 -449.7772522 418.26210022 C-449.92749408 419.75603745 -450.06577182 421.2512414 -450.1902771 422.74754333 C-450.69254659 427.80942965 -450.69254659 427.80942965 -452.59521484 430.21850586 C-453.06910645 430.55503174 -453.54299805 430.89155762 -454.03125 431.23828125 C-448.72505989 375.75125965 -434.42471317 321.43528982 -410.03125 271.23828125 C-409.66402832 270.4788623 -409.29680664 269.71944336 -408.91845703 268.93701172 C-406.99547156 264.9781365 -405.02626958 261.04604894 -403.00830078 257.13476562 C-402.34335528 255.8440868 -401.68304479 254.55101185 -401.02685547 253.25585938 C-385.90870862 223.43493872 -366.51630209 195.79998425 -345.03125 170.23828125 C-344.60054199 169.72265625 -344.16983398 169.20703125 -343.72607422 168.67578125 C-330.2731467 152.60239973 -315.99501064 136.53200187 -300 122.9296875 C-297.75343493 120.99960283 -295.58541096 118.99409986 -293.40625 116.98828125 C-287.83211213 111.9647801 -281.965528 107.37594048 -276.03076172 102.79199219 C-273.89656291 101.13362329 -271.77762195 99.45701727 -269.66015625 97.77734375 C-260.39523738 90.45122266 -251.01157848 83.55497426 -241.03125 77.23828125 C-240.23847656 76.73441895 -239.44570312 76.23055664 -238.62890625 75.71142578 C-173.9893204 34.77056176 -103.13837896 9.59524625 -27.03125 1.23828125 C-26.27481201 1.15207016 -25.51837402 1.06585907 -24.73901367 0.97703552 C-16.50088446 0.12181334 -8.27351889 0.03811754 0 0 Z " fill="#FBFBFB" transform="translate(491.03125,17.76171875)"/>
  <path d="M0 0 C3.58186707 5.37280061 5.15699958 11.83428269 7.1875 17.9375 C7.43332825 18.67485382 7.67915649 19.41220764 7.93243408 20.17190552 C20.41645774 57.80539781 29.94276907 99.28280524 30.1875 139.125 C30.20167969 140.20007813 30.21585938 141.27515625 30.23046875 142.3828125 C30 145 30 145 28 147 C27.96559814 146.33508545 27.93119629 145.6701709 27.89575195 144.98510742 C25.38017787 98.98325273 17.47967276 52.07930762 0.63818359 9.01879883 C-0.63225468 5.66750063 -1.4245927 3.4036676 0 0 Z " fill="#F5F5F6" transform="translate(958,326)"/>
  <path d="M0 0 C2 2 2 2 2.125 5.125 C2.08375 6.07375 2.0425 7.0225 2 8 C1.01 8 0.02 8 -1 8 C-1.125 2.25 -1.125 2.25 0 0 Z " fill="#8A8A8A" transform="translate(36,532)"/>
</svg>
